<?xml version="1.0" encoding="utf-8"?>
<!-- Generator: Adobe Illustrator 18.1.1, SVG Export Plug-In . SVG Version: 6.00 Build 0)  -->
<!DOCTYPE svg PUBLIC "-//W3C//DTD SVG 1.1//EN" "http://www.w3.org/Graphics/SVG/1.1/DTD/svg11.dtd">
<svg version="1.1" id="Layer_1" xmlns="http://www.w3.org/2000/svg" xmlns:xlink="http://www.w3.org/1999/xlink" x="0px" y="0px"
	 viewBox="0 0 1920 1200" enable-background="new 0 0 1920 1200" xml:space="preserve">
<rect x="0.1" fill="#DD7272" width="1920" height="1200"/>
<path fill="#4D4D4D" d="M1753.2,63.9H165.1c-6.6,0-12,5.4-12,12v1074c0,6.6,5.4,12,12,12h1588.1c6.6,0,12-5.4,12-12V75.9
	C1765.2,69.3,1759.8,63.9,1753.2,63.9z"/>
<path fill="#CCCCCC" d="M64,1123h661.2l23.2,40h425.2l21.4-40h661v38.8c0,0-1.8,34.3-23.1,37c-21.3,2.7-1738.3,0-1738.3,0
	s-27.5-10.4-30.6-29V1123z"/>
<polygon fill="#F2F2F2" points="64,1123 64,1098.9 1856.3,1099.5 1856.2,1123 1193.5,1123 1173.6,1163 750.1,1163 725.2,1123 "/>
<rect x="185.8" y="104.4" fill="#C0E1F9" width="1538.5" height="956"/>
<g>
	<circle fill="#808080" cx="967.1" cy="83.1" r="9.8"/>
	<circle fill="#00FF00" cx="983.5" cy="82.8" r="3.3"/>
	<circle fill="#4D4D4D" cx="967.1" cy="83.1" r="2.7"/>
</g>
<path fill="#CCCCCC" d="M958.2,579.6"/>
<rect x="185.8" y="104.4" opacity="0.8" fill="#F2F2F2" width="1538.5" height="19.8"/>
<g>
	<path fill="#333333" d="M208.5,110c0,0,1.3,0,2.1-1c0.8-1,0.7-2.4,0.7-2.4s-1.1,0.1-2.1,1C208.3,108.7,208.5,110,208.5,110z"/>
	<path fill="#333333" d="M208,110.7c0,0,0.6,0.3,1.1,0.1c0.5-0.2,1.2-0.6,2.3-0.7c1.1,0,2.2,0.9,2.2,0.9l0.4,0.5
		c0,0-1.4,1.1-1.5,2.7c-0.1,1.6,1,2.5,2,3c0,0-0.4,1.3-1.3,2.5c-0.9,1.2-1.6,1.2-1.6,1.2s-0.6,0.2-1.4-0.2s-0.6-0.3-1.4-0.4
		c-0.8-0.1-1.7,0.6-2.1,0.6c-0.5,0-0.8,0-1.4-0.4c-0.7-0.5-1.5-1.9-1.5-1.9s-0.5-0.8-0.9-2.2c-0.4-1.4-0.4-3-0.2-3.6
		c0.2-0.6,0.6-1.7,1.7-2.4c1.1-0.6,2.4-0.4,2.4-0.4S207.4,110.5,208,110.7z"/>
</g>
<text transform="matrix(1 0 0 1 243.2746 120.6299)" fill="#333333" font-family="'Tahoma'" font-size="15">Hack University</text>
<text transform="matrix(1 0 0 1 391.6108 120.6299)" fill="#333333" font-family="'Tahoma'" font-size="15">File</text>
<text transform="matrix(1 0 0 1 436.0273 121.1346)" fill="#333333" font-family="'Tahoma'" font-size="15">Edit</text>
<text transform="matrix(1 0 0 1 482.1777 120.6299)" fill="#333333" font-family="'Tahoma'" font-size="15">View</text>
<text transform="matrix(1 0 0 1 536.5776 120.6299)" fill="#333333" font-family="'Tahoma'" font-size="15">Help</text>
<line fill="#333333" stroke="#333333" stroke-width="3" stroke-miterlimit="10" x1="1671" y1="109.5" x2="1690" y2="109.5"/>
<line fill="#333333" stroke="#333333" stroke-width="3" stroke-miterlimit="10" x1="1671" y1="114.5" x2="1682" y2="114.5"/>
<line fill="#333333" stroke="#333333" stroke-width="3" stroke-miterlimit="10" x1="1671" y1="119.5" x2="1690" y2="119.5"/>
<rect x="1666.8" y="108.6" fill="#333333" stroke="#333333" stroke-miterlimit="10" width="1.8" height="1.8"/>
<rect x="1666.8" y="119" fill="#333333" stroke="#333333" stroke-miterlimit="10" width="1.8" height="1.8"/>
<rect x="1666.8" y="114.1" fill="#333333" stroke="#333333" stroke-miterlimit="10" width="1.8" height="1.8"/>
<g>
	<circle fill="none" stroke="#333333" stroke-width="2" stroke-miterlimit="10" cx="1627.5" cy="111.7" r="4.5"/>
	<line fill="none" stroke="#333333" stroke-width="2" stroke-miterlimit="10" x1="1629.7" y1="115.5" x2="1633.1" y2="121.5"/>
</g>
<text transform="matrix(1 0 0 1 1484.2227 120.6299)" fill="#333333" font-family="'Tahoma'" font-size="15">Mon   8:00  AM</text>
<rect x="1424" y="109.9" fill="#333333" width="8.6" height="8.6"/>
<polygon fill="#333333" points="1429,118.4 1433.4,121.3 1433.4,107.1 1429,109.9 "/>
<path fill="none" stroke="#333333" stroke-miterlimit="10" d="M1436.4,108.9c0,0,2.9,4,0,10.7"/>
<path fill="none" stroke="#333333" stroke-miterlimit="10" d="M1440.2,107.1c0,0,2.9,5.3,0,14.3"/>
<circle fill="#4D4D4D" cx="1393" cy="118.8" r="2.6"/>
<path fill="none" stroke="#333333" stroke-miterlimit="10" d="M1388,115.9c0,0,5.2-5.8,9.8,0.3"/>
<path fill="none" stroke="#333333" stroke-miterlimit="10" d="M1386.4,113.1c0,0,6.3-5.6,13.2,0"/>
<path fill="none" stroke="#333333" stroke-miterlimit="10" d="M1384.7,110.2c0,0,8.2-5.4,16.6,0"/>
<g>
	<g>
		<rect x="1323.6" y="107.6" fill="none" stroke="#333333" stroke-miterlimit="10" width="30.4" height="14.1"/>
		<rect x="1324.7" y="108.8" fill="#333333" width="27.8" height="11.4"/>
		<path fill="#333333" d="M1355,109.8v10.3C1355,120.1,1360,115.1,1355,109.8z"/>
	</g>
	<text transform="matrix(1 0 0 1 1288.0463 119.7935)" fill="#333333" font-family="'Tahoma'" font-size="15">99%</text>
</g>
<g>
	<circle fill="#333333" cx="1225.8" cy="115" r="7.4"/>
	<circle fill="#333333" cx="1234.4" cy="113.9" r="8.5"/>
	<path fill="none" stroke="#FFFFFF" stroke-miterlimit="10" d="M1230.7,108.4c0,0,8.9-4.6,10.7,6.6c0,0-0.8,5-7,6c0,0-4.5,0.2-8.6-6
		"/>
	<path fill="none" stroke="#FFFFFF" stroke-miterlimit="10" d="M1230.7,113.9c0,0-2-7.3-7.8-3.6c0,0-2.1,0.6-2.6,4.7
		c-0.6,4.1,3.8,6.3,6.7,5.7l1-0.2"/>
	<path fill="#333333" d="M1230.3,107.9c0,0,1.6,0.7,1.8,1.1l0.2,0.6l-2.8-1.5L1230.3,107.9z"/>
	<polygon fill="#333333" points="1227,120.4 1228,121.3 1229,121.5 1227.1,118.9 	"/>
</g>
<polygon fill="#E6E6E6" points="448.5,1019.2 439.3,1015.6 439,1009 431.5,1009 432.2,1022.1 448.4,1026.5 "/>
<path opacity="0.49" fill="#FFFFFF" d="M1525,1060v-89.7c0-11.6-7.1-20.3-14.7-20.3H408.2c-7.6,0-15.2,8.8-15.2,20.3v89.7H1525z"/>
<g>
	<path fill="#CCCCCC" d="M1458.2,987l8.3,47.7c0,0,16.5,7.1,31.5,0l10.7-47.7C1508.7,987,1483.8,1006.5,1458.2,987z"/>
	<ellipse fill="#CCCCCC" stroke="#FFFFFF" stroke-width="3" stroke-miterlimit="10" cx="1483.5" cy="987" rx="25.3" ry="10.2"/>
</g>
<g>
	<rect x="1369.3" y="989.9" fill="#64BDF4" width="72.1" height="44.3"/>
	<polygon fill="#95D3F9" points="1369,991 1369,978 1391.8,978 1396.2,983.5 1442,984.1 1442,991 	"/>
	<circle fill="#49B2DB" cx="1405.6" cy="1012.1" r="14.1"/>
	<g>
		<rect x="1402.8" y="999.7" fill="#64BDF4" width="5.5" height="11.5"/>
		<polygon fill="#64BDF4" points="1405.8,1024.4 1398,1011 1413.5,1011 		"/>
	</g>
</g>
<g>
	<g>
		<g>
			<circle fill="#FF0000" cx="1117.3" cy="1007.1" r="32.8"/>
			<path fill="#22B573" d="M1102.6,1007.1l-10.7-20.8c0,0-12,12.8-5.7,31.4c6.3,18.5,23.8,21.4,23.8,21.4s2.7,0.9,6.2,0.8l10.2-21.4
				c0,0-5.1,4.9-13.4,2.6C1104.7,1018.9,1102.3,1010.4,1102.6,1007.1z"/>
			<path fill="#FFFF00" d="M1128.4,997.7l21.5,6.5c0,0,1.9,13.3-8,24.6c-10,11.3-23,11.2-25.7,11.1l10.2-21.4c0,0,5.3-4,5.4-11
				C1131.9,1007.5,1132.4,1002.5,1128.4,997.7z"/>
		</g>
		<g>
			<circle fill="#FFFFFF" cx="1117.3" cy="1007.1" r="16.1"/>
			<circle fill="#178BCC" cx="1117.3" cy="1007.1" r="13.6"/>
		</g>
	</g>
	<circle fill="#4D4D4D" cx="1117.1" cy="1054.1" r="3.6"/>
</g>
<g>
	<g>
		<rect x="1169.4" y="975.6" fill="#FFFFFF" width="83.7" height="65.7"/>
		<rect x="1170" y="976.8" fill="#1A1A1A" width="82.5" height="63.3"/>
		<rect x="1174" y="980.6" fill="#4D4D4D" width="74.4" height="55.3"/>
		<text transform="matrix(0.888 0 0 1 1176.8645 995.8369)"><tspan x="0" y="0" fill="#FFFFFF" font-family="'Kefa-Regular'" font-size="25.1168" letter-spacing="-2.3">&gt;</tspan><tspan x="12.6" y="0" fill="#FFFFFF" font-family="'Kefa-Regular'" font-size="25.1168">_</tspan></text>
	</g>
	<circle fill="#4D4D4D" cx="1211" cy="1054.1" r="3.6"/>
</g>
<g>
	<g>
		<polygon fill="#FFFFFF" points="1280,970 1271.8,1036 1350,1036 1341.8,970 		"/>
		<linearGradient id="SVGID_1_" gradientUnits="userSpaceOnUse" x1="1311.3096" y1="1028" x2="1311.3096" y2="965">
			<stop  offset="0" style="stop-color:#808080"/>
			<stop  offset="0.1955" style="stop-color:#848484"/>
			<stop  offset="0.3946" style="stop-color:#909090"/>
			<stop  offset="0.5954" style="stop-color:#A5A5A5"/>
			<stop  offset="0.7974" style="stop-color:#C1C1C1"/>
			<stop  offset="0.9986" style="stop-color:#E6E6E6"/>
			<stop  offset="1" style="stop-color:#E6E6E6"/>
		</linearGradient>
		<polygon fill="url(#SVGID_1_)" points="1283.1,965 1280,1028 1342.7,1028 1338.5,965 		"/>
		<polygon fill="#666666" points="1342.6,1027.4 1279.8,1027.4 1280.1,1032.7 1342.1,1032.5 		"/>
		<text transform="matrix(1.2854 0 0 1 1288.6702 1015.1758)" fill="#F7931E" font-family="'Kefa-Regular'" font-size="80.8587">s</text>
	</g>
	<circle fill="#4D4D4D" cx="1311.8" cy="1054.1" r="3.6"/>
</g>
<g>
	<g>
		<rect x="907" y="972.8" fill="#E57E17" width="67.6" height="67.6"/>
		<rect x="911.6" y="977.4" fill="#333333" width="58.3" height="58.3"/>
		<text transform="matrix(1 0 0 1 923.2532 1021.335)" fill="#E57E17" font-family="'Tahoma'" font-size="43.1853">Ai</text>
	</g>
	<circle fill="#4D4D4D" cx="941.6" cy="1054.1" r="3.6"/>
</g>
<g>
	<g>
		<path fill="#999999" d="M1052.6,1041h-45.7c-6.6,0-12-5.4-12-12v-45.7c0-6.6,5.4-12,12-12h45.7c6.6,0,12,5.4,12,12v45.7
			C1064.6,1035.6,1059.2,1041,1052.6,1041z"/>
		<circle fill="#FFFFFF" cx="1030" cy="1005.9" r="20.5"/>
		<circle fill="#999999" cx="1030.2" cy="1006" r="8.6"/>
		<circle fill="#FFFFFF" cx="1025.7" cy="1002.5" r="3.2"/>
	</g>
	<circle fill="#4D4D4D" cx="1028.9" cy="1054.1" r="3.6"/>
</g>
<path fill="#F03C2E" d="M889.9,1001.7l-34.5-34.5c-2-2-5.2-2-7.2,0l-7.2,7.2l9.1,9.1c2.1-0.7,4.6-0.2,6.2,1.5
	c1.7,1.7,2.2,4.2,1.4,6.3l8.8,8.8c2.1-0.7,4.6-0.2,6.3,1.4c2.4,2.4,2.4,6.2,0,8.6c-2.4,2.4-6.2,2.4-8.6,0c-1.8-1.8-2.2-4.4-1.3-6.6
	l-8.1-8.2v21.5c0.6,0.3,1.1,0.7,1.6,1.1c2.4,2.4,2.4,6.2,0,8.6c-2.4,2.4-6.2,2.4-8.6,0c-2.4-2.4-2.4-6.2,0-8.6c0.6-0.6,1.3-1,2-1.3
	v-21.7c-0.7-0.3-1.4-0.7-2-1.3c-1.8-1.8-2.2-4.4-1.3-6.6l-9-9l-23.7,23.7c-2,2-2,5.2,0,7.2l34.5,34.5c2,2,5.2,2,7.2,0l34.4-34.4
	C891.8,1007,891.8,1003.7,889.9,1001.7"/>
<g id="Layer_1_1_">
	<g id="code_x5F_html5">
	</g>
	<g>
		<polygon fill="#E6A329" points="713.2,970.9 681.2,970.9 681.2,970.9 649,970.9 655,1036.2 681.2,1043.6 681.2,1043.6 
			681.2,1043.6 681.2,1043.6 681.2,1043.6 707.2,1036.2 		"/>
		<polygon fill="#F1BF22" points="681.2,976.2 681.2,1038.1 681.2,1038.1 702.3,1032 707.4,976.2 		"/>
		<polygon fill="#FFFFFF" points="697.9,984.2 665.4,984.2 663.1,1008.6 663.2,1008.5 690.8,1008.5 689.9,1018.9 681.2,1021.4 
			672.1,1018.8 671.7,1012.6 663.5,1012.6 664.6,1025.1 681.2,1029.7 697.6,1025.1 699.8,1000.5 670.5,1000.5 670.9,992.3 
			691.2,992.3 691.5,997 699.7,997 		"/>
	</g>
</g>
<g>
	<polygon fill="#1572B6" points="573.7,1036.9 567.8,970.9 632.5,970.9 626.6,1036.9 600.1,1044.2 	"/>
	<polygon fill="#33A9DC" points="600.1,1038.6 621.5,1032.7 626.6,976.3 600.1,976.3 	"/>
	<g>
		<polygon fill="#FFFFFF" points="600.1,1000.2 610.8,1000.2 611.6,991.9 600.1,991.9 600.1,983.8 600.2,983.8 620.4,983.8 
			620.2,986 618.2,1008.3 600.1,1008.3 		"/>
		<polygon fill="#EBEBEB" points="600.2,1021.2 600.1,1021.2 591.1,1018.8 590.5,1012.4 586.2,1012.4 582.4,1012.4 583.6,1025.1 
			600.1,1029.7 600.2,1029.7 		"/>
		<polygon fill="#FFFFFF" points="610.1,1008 609.2,1018.8 600.1,1021.2 600.1,1029.7 616.7,1025.1 616.9,1023.7 618.3,1008 		"/>
		<polygon fill="#EBEBEB" points="600.2,983.8 600.2,988.8 600.2,991.9 600.2,991.9 580.6,991.9 580.6,991.9 580.6,991.9 
			580.4,990.1 580.1,986 579.9,983.8 		"/>
		<polygon fill="#EBEBEB" points="600.1,1000.2 600.1,1005.2 600.1,1008.3 600.1,1008.3 591.2,1008.3 591.2,1008.3 591.2,1008.3 
			591.1,1006.5 590.7,1002.4 590.5,1000.2 		"/>
	</g>
</g>
<g>
	<polygon fill="#E44D26" points="492.6,1036.2 486.7,970.6 551,970.6 545.2,1036.2 518.8,1043.5 	"/>
	<polygon fill="#F16529" points="518.9,1038 540.2,1032.1 545.2,976 518.9,976 	"/>
	<polygon fill="#EBEBEB" points="518.9,1000.3 508.2,1000.3 507.5,992.1 518.9,992.1 518.9,984 518.9,984 498.7,984 498.9,986.2 
		500.9,1008.4 518.9,1008.4 	"/>
	<polygon fill="#EBEBEB" points="518.9,1021.2 518.9,1021.2 509.9,1018.8 509.3,1012.4 505,1012.4 501.2,1012.4 502.4,1025 
		518.9,1029.6 518.9,1029.6 	"/>
	<polygon fill="#FFFFFF" points="518.9,1000.3 518.9,1008.4 528.8,1008.4 527.8,1018.8 518.9,1021.2 518.9,1029.6 535.4,1025 
		535.5,1023.7 537.4,1002.5 537.6,1000.3 535.4,1000.3 	"/>
	<polygon fill="#FFFFFF" points="518.9,984 518.9,989 518.9,992 518.9,992.1 538.3,992.1 538.3,992.1 538.3,992.1 538.5,990.3 
		538.8,986.2 539,984 	"/>
</g>
<polygon fill="#F2F2F2" points="725.2,1123 748.4,1163 750,1163 752.1,1119.3 "/>
<polygon fill="#F2F2F2" points="1195,1123 1173.6,1163 1160,1157.7 1184.6,1111.9 "/>
<g>
	<linearGradient id="SVGID_2_" gradientUnits="userSpaceOnUse" x1="732.5894" y1="1035.1368" x2="793.9148" y2="972.7403">
		<stop  offset="0" style="stop-color:#070135"/>
		<stop  offset="1" style="stop-color:#612D50"/>
	</linearGradient>
	<path fill="url(#SVGID_2_)" d="M730.5,979.4c0,0,0.3-11.4,12.2-11.4c11.9,0,42.8,0,42.8,0s9.5,1.6,10.5,10.1v50.6
		c0,0,0.2,10.3-10.9,10.3h-44.8c0,0-7.9,1.3-9.9-10.7L730.5,979.4z"/>
	
		<text transform="matrix(1 0 0 1 745.5479 1024.418)" fill="#FFFFFF" stroke="#FFFFFF" stroke-width="2" stroke-miterlimit="10" font-family="'KannadaSangamMN-Bold'" font-size="57.2164">B</text>
</g>
<circle fill="#4D4D4D" cx="438.8" cy="1054.1" r="3.6"/>
<g>
	<polygon fill="#FF8484" points="412.6,1036.2 406.8,970.6 471.1,970.6 465.2,1036.2 438.9,1043.5 	"/>
	<polygon fill="#F9A7A7" points="438.9,1038 460.2,1032.1 465.2,976 438.9,976 	"/>
	<polygon fill="#EBEBEB" points="438.9,1021.2 438.9,1021.2 429.9,1018.8 429.3,1012.4 425,1012.4 421.3,1012.4 422.4,1025 
		438.9,1029.6 438.9,1029.6 	"/>
	<polygon fill="#FFFFFF" points="438.9,1029.6 438.9,1029.6 455.4,1025 456.5,1012.4 452.8,1012.4 448.5,1012.4 447.9,1018.8 
		438.9,1021.2 438.9,1021.2 	"/>
	<polygon fill="#EBEBEB" points="421.3,1012.8 419,984.3 427.3,983.8 429.3,1012.8 421.6,1015.5 	"/>
	<polygon fill="#FFFFFF" points="456.5,1012.8 458.8,984.3 450.6,983.8 448.5,1012.8 456.2,1016.3 	"/>
</g>
<path opacity="0.49" fill="#FFFFFF" d="M1257.4,928.2h-93.2c-6.6,0-12-5.4-12-12v-20.7c0-6.6,5.4-12,12-12h93.2c6.6,0,12,5.4,12,12
	v20.7C1269.4,922.8,1264,928.2,1257.4,928.2z"/>
<text transform="matrix(1 0 0 1 1162.0786 914.7725)" fill="#333333" font-family="'ArialMT'" font-size="25">Terminal</text>
<polygon opacity="0.49" fill="#FFFFFF" points="1200.2,928 1221.9,928 1211.1,938.6 "/>
</svg>
