<?xml version="1.0" encoding="utf-8"?>
<!-- Generator: Adobe Illustrator 18.1.1, SVG Export Plug-In . SVG Version: 6.00 Build 0)  -->
<!DOCTYPE svg PUBLIC "-//W3C//DTD SVG 1.1//EN" "http://www.w3.org/Graphics/SVG/1.1/DTD/svg11.dtd">
<svg version="1.1" id="Layer_1" xmlns="http://www.w3.org/2000/svg" xmlns:xlink="http://www.w3.org/1999/xlink" x="0px" y="0px"
	 viewBox="0 0 762.3 200" enable-background="new 0 0 762.3 200" xml:space="preserve">
<g>
	<path fill="#702C79" d="M229.1,143.8v-6.4l7.4-0.8c1.7-0.2,1.9-0.6,1.9-2.4V67.9c0-1.8-0.2-2.2-1.9-2.4l-7.4-0.8v-6.5H288v19.5
		l-8-0.5l-1.7-9.1c-0.2-1.2-0.7-1.5-2-1.5h-26.9V96h31.1v8.5h-31.1v29.5c0,1.9,0.1,2.1,1.9,2.4l17.4,0.9v6.4H229.1z"/>
	<path fill="#702C79" d="M291.6,143.8v-6.5l7.8-0.7c1.7-0.1,1.9-0.6,1.9-2.4V94c0-1.3-0.4-2.1-1.5-2.5l-6.7-2.2l1.1-6.3h18v51.2
		c0,1.9,0.1,2.1,1.9,2.4l7.6,0.8v6.4H291.6z M305.1,69.9c-4.8,0-7.7-2.7-7.7-7.6c0-4.7,2.8-7.4,7.7-7.4c4.8,0,7.6,2.7,7.6,7.4
		C312.7,67.2,310,69.9,305.1,69.9z"/>
	<path fill="#702C79" d="M359.6,99.9l-1.4-7.3c-0.1-0.8-0.2-1.3-1.2-1.5c-1.7-0.6-5.2-1.3-9.2-1.3c-8.6,0-12.5,3.8-12.5,8.9
		c0,6.7,7.1,8.2,14.8,10.2c9.2,2.4,19.3,5.2,19.3,18c0,13.7-11.5,18.4-24,18.4c-9.6,0-19.3-2.7-21.4-4v-15.7l7.9,0.5l1.4,8.2
		c0.1,0.8,0.4,1.3,1.4,1.7c1.5,0.6,5.7,1.9,11.6,1.9c7.9,0,13-3,13-9.3c0-7.1-6.7-8.7-14.3-10.5c-9.2-2.1-19.6-4.5-19.6-17.5
		c0-13.5,11.3-18.4,23.5-18.4c8.5,0,16.2,2.2,18.7,3.3v15.2L359.6,99.9z"/>
	<path fill="#702C79" d="M422.6,140.2c-4.5,3-12.4,5-20.2,5c-20.2,0-28.8-12.4-28.8-31.1c0-22.5,13-32.3,31-32.3
		c8.6,0,15.4,2.4,18,3.7v15.7l-7.9-0.4l-1.4-7.8c-0.1-0.8-0.4-1.3-1.4-1.7c-1.7-0.6-4.7-1.1-8-1.1c-10.5,0-18.9,6.1-18.9,23
		c0,16.5,7.8,22.9,19.3,22.9c5.9,0,11.8-1.9,15.1-3.9L422.6,140.2z"/>
	<path fill="#702C79" d="M465.4,143.8l-1.1-7.7l-0.4-0.1c-5.7,5.3-12.3,9.2-21.4,9.2c-14.8,0-16.7-10.2-16.7-16.2
		c0-11.8,7.3-17.4,21.5-18.6l16-1.3v-6.3c0-8.6-1.7-12.9-11.9-12.9c-7.2,0-12.4,0.2-12.5,9.1L428.7,98c0-14.5,13.5-16.2,22.8-16.2
		c16.8,0,22.5,4.7,22.5,21v31.3c0,1.9,0.1,2.1,1.9,2.4l6,0.8v6.4H465.4z M463.3,116.6l-13.4,1.2c-10.2,0.9-13,3.9-13,10
		c0,6.4,2.7,9,8.3,9c7,0,14.4-5.7,18.1-9.1V116.6z"/>
	<path fill="#702C79" d="M483.3,143.8v-6.5l7.3-0.7c1.7-0.1,1.9-0.6,1.9-2.4V65.5c0-1.3-0.4-2.1-1.5-2.5l-7.1-2.2l1.1-6.3h18.3v79.6
		c0,1.9,0.1,2.1,1.9,2.4l7.1,0.8v6.4H483.3z"/>
	<path fill="#847296" d="M579.5,143.8l-43.1-71.5v61.8c0,1.9,0.1,2.1,1.9,2.4l7.9,0.9v6.4h-28.7v-6.4l7.4-0.8
		c1.7-0.2,1.9-0.6,1.9-2.4V67.8c0-1.8-0.2-2.2-1.9-2.4l-7.4-0.8v-6.5h23.2l42.1,71V67.8c0-1.8-0.2-2.2-1.9-2.4l-7.4-0.8v-6.4H602
		v6.4l-7.9,0.9c-1.8,0.2-1.9,0.5-1.9,2.2v76H579.5z"/>
	<path fill="#847296" d="M607,113.2c0-18.6,9.5-31.3,29.7-31.3c20.2,0,28,12.9,28,30.6c0,19.9-9,32.7-29.2,32.7
		C615,145.2,607,132,607,113.2z M653.6,113.2c0-15.5-5.7-22.3-17.1-22.3c-11.6,0-18.3,6.9-18.3,22.5c0,15.7,6,23.3,17.7,23.3
		C647.3,136.6,653.6,129.4,653.6,113.2z"/>
	<path fill="#847296" d="M710.2,141.5c-4.7,1.9-10.4,3.7-16.4,3.7c-11.3,0-16.4-5.3-16.4-16V92.4c0-0.7,0-1.2-0.9-1.2h-8.6v-6.9
		c9.2-1.2,11.8-4.8,13.4-16.9h7v14.4c0,0.7,0,1.2,0.9,1.2h17.4v8.2h-18.3V126c0,7.4,1.8,10.3,8.5,10.3c3.7,0,7.8-1.1,11-2.4
		L710.2,141.5z"/>
	<path fill="#847296" d="M759.5,139.9c-5.9,3.3-13,5.3-21.5,5.3c-21.4,0-28.4-14.1-28.4-31.7c0-21.6,12.1-31.7,26.9-31.7
		c14.4,0,24.3,7.8,24.3,28.2c0,1.5-0.1,3.9-0.2,5.9H721c0.4,11.9,5.2,20.1,18.1,20.1c6.6,0,10.8-1.2,17-4.3L759.5,139.9z
		 M750.1,107.9c-0.2-13.5-6.4-17.4-13.6-17.4c-7.9,0-14.5,4.3-15.5,17.4H750.1z"/>
</g>
<g>
	<path fill-rule="evenodd" clip-rule="evenodd" fill="#857296" d="M1,100.1C1,74,1,47.8,1,21.7c0-1.4,0.1-2.8,0.5-4.2
		c0.3-1.1,0.5-2.1,0.8-3.2c0.4-1.6,1.1-3,2.2-4.3c0.2-0.2,0.3-0.5,0.5-0.7C5.4,8.3,6.2,7.6,7,6.8c0.6-0.6,1.2-1.3,1.9-1.7
		c0.6-0.3,1-0.7,1.6-1.1c1.1-0.8,2.3-1.3,3.5-1.7c1.7-0.4,3.5-0.8,5.2-1.2C19.6,1.1,19.8,1,20.1,1c0.6,0,1.2,0,1.8,0
		C73.5,1,125,1,176.5,1c2.9,0,5.7,0.2,8.5,1.1c0.9,0.3,1.8,0.5,2.6,0.8c0.6,0.2,1.2,0.5,1.7,0.9c2.1,1.4,4.2,2.8,5.6,4.9
		c0.6,1,1.4,1.9,1.9,2.9c0.5,0.9,0.8,1.9,1.1,2.8c0.4,1.3,0.7,2.6,0.9,3.9c0.2,1.1,0.3,2.1,0.3,3.2c0,52.5,0,105,0,157.5
		c0,1-0.2,2-0.4,3c-0.2,1.3-0.6,2.5-0.9,3.7c-0.4,1.5-1,2.8-1.9,4.1c-0.4,0.5-0.7,1.1-1.1,1.6c-0.3,0.5-0.7,0.9-1.2,1.3
		c-0.5,0.4-0.9,1-1.4,1.5c-0.1,0.1-0.2,0.3-0.4,0.4c-1,0.7-1.9,1.4-2.9,2c-1,0.5-2,1-3.1,1.3c-1.5,0.5-3.1,0.8-4.6,1.1
		c-0.8,0.2-1.7,0.3-2.5,0.3c-52.5,0-105.1,0-157.6,0c-1.1,0-2.2-0.2-3.3-0.4c-1-0.2-2-0.5-3.1-0.7c-1.8-0.4-3.4-1.2-4.9-2.2
		c-0.9-0.7-1.9-1.3-2.7-2c-0.7-0.6-1.3-1.4-1.9-2.2c-0.5-0.6-1-1.3-1.4-1.9c-0.7-1.2-1.5-2.5-1.8-3.9c-0.3-1.6-0.7-3.2-1.1-4.9
		C1.1,180.7,1,180.3,1,180c0-1.1,0-2.2,0-3.2C1,151.2,1,125.7,1,100.1z M100.1,10c-1.7,0-3.4,0-5.1,0c-24.7,0-49.3,0-74,0
		c-0.5,0-1.1,0-1.6,0.1c-1.2,0.2-2.3,0.5-3.4,1c-1.1,0.6-2.2,1.1-3,2.1c-0.1,0.2-0.3,0.3-0.5,0.4c-0.1,0.1-0.2,0.2-0.3,0.3
		c-0.3,0.4-0.5,0.8-0.8,1.2c-1,1.7-1.6,3.5-1.6,5.5c0,2.5,0,5,0,7.5c0,50.3,0,100.6,0,150.9c0,0.6,0,1.1,0,1.7
		c0.5,3.7,2.4,6.5,5.7,8.4c1.8,1,3.7,1.3,5.7,1.3c52.5,0,105,0,157.5,0c0.3,0,0.5,0,0.8,0c2-0.1,4-0.6,5.7-1.8
		c0.3-0.2,0.6-0.4,0.9-0.6c0.1-0.1,0.2-0.2,0.3-0.3c0.3-0.3,0.6-0.7,0.9-1c0.8-0.9,1.5-1.9,2-3.1c0.6-1.6,0.9-3.2,0.9-4.9
		c0-35.3,0-70.7,0-106c0-17.1,0-34.2,0-51.4c0-1-0.1-2-0.3-3c-0.4-2-1.4-3.8-2.8-5.2c-1.2-1.2-2.5-2.2-4.2-2.6
		c-1.2-0.4-2.4-0.6-3.7-0.6C152.9,10,126.5,10,100.1,10z"/>
	<g>
		<path fill="#702C79" d="M27.8,144.1v-9.5l7.6-0.8c1.7-0.2,1.9-0.6,1.9-2.4V69.2c0-1.8-0.2-2.3-1.9-2.4L27.8,66v-9.6h63.6v24.5
			l-13.3-0.6L76.5,71c-0.2-1.2-0.7-1.6-2-1.6H56v23.8h27.7v13.5H56v24.5c0,1.9,0.1,2.2,1.9,2.4l17.7,1v9.6H27.8z"/>
	</g>
	<g>
		<path fill="#857296" d="M145,144.1l-27.8-57.4v42.7c0,1.9,0.1,2.2,1.5,2.4l6.4,1v11.3H96.6v-11.3l6-0.8c1.3-0.2,1.5-0.6,1.5-2.4
			V70.9c0-1.8-0.2-2.3-1.5-2.4l-6-0.8V56.3h26.6l27.7,57.7V71.1c0-1.8-0.2-2.3-1.5-2.4l-6-0.8V56.3h28.5v11.5l-6.4,1
			c-1.4,0.2-1.5,0.5-1.5,2.3v73H145z"/>
	</g>
</g>
</svg>
