<?xml version="1.0" encoding="utf-8"?>
<!-- Generator: Adobe Illustrator 18.1.1, SVG Export Plug-In . SVG Version: 6.00 Build 0)  -->
<!DOCTYPE svg PUBLIC "-//W3C//DTD SVG 1.1//EN" "http://www.w3.org/Graphics/SVG/1.1/DTD/svg11.dtd">
<svg version="1.1" id="Layer_1" xmlns="http://www.w3.org/2000/svg" xmlns:xlink="http://www.w3.org/1999/xlink" x="0px" y="0px"
	 viewBox="0 0 885 156.5" enable-background="new 0 0 885 156.5" xml:space="preserve">
<g>
	<text transform="matrix(1 0 0 1 -6.0517 127.5835)" fill="#46BDF9" font-family="'Sathu'" font-size="118.4726">Hack</text>
	<g>
		<polygon fill="#FF8484" points="280.2,141 267.6,1.5 405.4,1.5 392.9,141 336.4,156.5 		"/>
		<polygon fill="#F9A7A7" points="336.4,144.7 382.1,132.1 392.8,13 336.4,13 		"/>
		<polygon fill="#EBEBEB" points="336.5,109.1 336.5,109.1 317.2,104 316,90.3 306.7,90.3 298.7,90.3 301.1,117.2 336.5,126.9 
			336.5,126.9 		"/>
		<polygon fill="#FFFFFF" points="336.4,126.9 336.5,126.9 371.9,117.2 374.3,90.3 366.3,90.3 357,90.3 355.7,104 336.5,109.1 
			336.4,109.1 		"/>
		<polygon fill="#EBEBEB" points="298.7,91.1 293.8,30.6 311.6,29.5 316,91.1 299.3,97 		"/>
		<polygon fill="#FFFFFF" points="374.3,91.3 379.1,30.7 361.6,29.7 357,91.3 373.5,98.6 		"/>
	</g>
	<text transform="matrix(1 0 0 1 399.5674 127.5835)" fill="#46BDF9" font-family="'Sathu'" font-size="118.4726">niversity</text>
</g>
</svg>
