<?xml version="1.0" encoding="utf-8"?>
<!-- Generator: Adobe Illustrator 18.1.1, SVG Export Plug-In . SVG Version: 6.00 Build 0)  -->
<!DOCTYPE svg PUBLIC "-//W3C//DTD SVG 1.1//EN" "http://www.w3.org/Graphics/SVG/1.1/DTD/svg11.dtd">
<svg version="1.1" xmlns="http://www.w3.org/2000/svg" xmlns:xlink="http://www.w3.org/1999/xlink" x="0px" y="0px"
	 viewBox="0 0 82.5 93" enable-background="new 0 0 82.5 93" xml:space="preserve">
<g id="Layer_1">
	<g id="code_x5F_html5">
	</g>
	<g>
		<polygon fill="#E6A329" points="81.3,1.1 41.1,1.1 41.1,1.1 0.8,1.1 8.3,83 41.1,92.3 41.1,92.3 41.1,92.3 41.1,92.3 41.1,92.3 
			73.8,83 		"/>
		<polygon fill="#F1BF22" points="41.1,7.8 41.1,85.4 41.1,85.4 67.6,77.8 74,7.8 		"/>
		<polygon fill="#FFFFFF" points="62.1,17.8 21.4,17.8 18.5,48.5 18.6,48.3 53.2,48.3 52.1,61.3 41.1,64.5 29.8,61.2 29.2,53.4 
			19,53.4 20.4,69.1 41.1,74.9 61.7,69.1 64.5,38.3 27.8,38.3 28.2,28 53.7,28 54.1,33.9 64.4,33.9 		"/>
	</g>
</g>
<g id="Layer_2">
</g>
</svg>
