<?xml version="1.0" encoding="utf-8"?>
<!-- Generator: Adobe Illustrator 18.1.1, SVG Export Plug-In . SVG Version: 6.00 Build 0)  -->
<!DOCTYPE svg PUBLIC "-//W3C//DTD SVG 1.1//EN" "http://www.w3.org/Graphics/SVG/1.1/DTD/svg11.dtd">
<svg version="1.1" id="Layer_1" xmlns="http://www.w3.org/2000/svg" xmlns:xlink="http://www.w3.org/1999/xlink" x="0px" y="0px"
	 viewBox="0 0 375.1 370.5" enable-background="new 0 0 375.1 370.5" xml:space="preserve">
<polygon fill="#46BDF9" points="111.9,367.9 5,260.6 5,109.8 111.9,2.9 262.8,2.9 370,109.8 370,260.6 262.8,367.9 "/>
<ellipse fill="#FCF79A" cx="189.8" cy="143.6" rx="108.3" ry="105.2"/>
<g>
	<circle fill="#FFFFFF" cx="142.6" cy="148.2" r="24.1"/>
	<circle fill="#FFFFFF" cx="142.6" cy="148.2" r="21.8"/>
	<circle fill="#42210B" cx="146.5" cy="148.1" r="15.5"/>
	<circle fill="#1A1A1A" cx="146.5" cy="148.1" r="9.2"/>
</g>
<g>
	<circle fill="#FFFFFF" cx="237.6" cy="148.2" r="24.1"/>
	<circle fill="#FFFFFF" cx="237.6" cy="148.2" r="21.8"/>
	<circle fill="#42210B" cx="233.7" cy="148.1" r="15.5"/>
	<circle fill="#1A1A1A" cx="233.7" cy="148.1" r="9.2"/>
</g>
<ellipse fill="#F9E453" cx="189.4" cy="181.1" rx="15.3" ry="8.6"/>
<path fill="#1A1A1A" d="M214.8,119.2c0,0,30.2-21.3,51.7,9.5C266.5,128.7,242.7,108.5,214.8,119.2z"/>
<path fill="#1A1A1A" d="M162.5,119.2c0,0-30.2-21.3-51.7,9.5C110.8,128.7,134.6,108.5,162.5,119.2z"/>
<path fill="#333333" d="M81.4,140.6c1.8,16.6-15.8-39.7,11.8-77.9l-9.4-9.8H108L97.3,38.3l20,6.8c0,0,93.1-51.7,148.7,15.9
	l-5.1-22.6l15.2,24c0,0,22,21,22.1,81.2l-26.9-32.2l-52.4-12.4l-39.3,9l-13.1-12.4l-23.7,9l-8-13.3L81.4,140.6z"/>
<path fill="#FFFFFF" d="M213.5,271.9c0,0,78.5,25.4,74.3,71l-24.8,25H111.9L87.2,343c-2.4-45.7,79.6-71.1,79.6-71.1"/>
<path fill="#AAC2F9" d="M167.1,275l-8.6,92.9H112L87.2,343c0,0-4.6-13.4,14.1-34.4c18.7-21,65.4-37.5,65.4-37.5L167.1,275z"/>
<path fill="#AAC2F9" d="M213,275.1l6.6,92.8H263l24.8-25c0,0,3.7-6.7-5-25c0,0-15-19.9-25.6-25.4c0,0-20.9-13.7-43.7-20.5L213,275.1
	z"/>
<circle fill="#A67C52" cx="152.7" cy="319.7" r="6.2"/>
<circle fill="#A67C52" cx="150.7" cy="339.7" r="6.2"/>
<circle fill="#A67C52" cx="148.7" cy="359.7" r="6.2"/>
<path fill="#808080" d="M220.5,320.2c0,0,8.3-3.7,15,0"/>
<path fill="#808080" d="M222.5,340.2c0,0,8.3-3.7,15,0"/>
<path fill="#808080" d="M225.5,360.2c0,0,8.3-3.7,15,0"/>
<path fill="#FCF79A" d="M201.5,283.9h-22.8c-6.6,0-12-5.4-12-12v-28.7c0-6.6,5.4-12,12-12h22.8c6.6,0,12,5.4,12,12v28.7
	C213.5,278.5,208.1,283.9,201.5,283.9z"/>
<path fill="#333333" d="M158.9,211.1c0,0,32.6,18.4,61.3,0"/>
<polygon fill="#85A6E8" points="166.7,271.2 146.5,302 164,308.5 167.1,275 "/>
<polygon fill="#85A6E8" points="213.5,271.9 233,301.9 215.4,308.5 213,275.1 "/>
</svg>
