<?xml version="1.0" encoding="utf-8"?>
<!-- Generator: Adobe Illustrator 18.1.1, SVG Export Plug-In . SVG Version: 6.00 Build 0)  -->
<!DOCTYPE svg PUBLIC "-//W3C//DTD SVG 1.1//EN" "http://www.w3.org/Graphics/SVG/1.1/DTD/svg11.dtd">
<svg version="1.1" id="Layer_1" xmlns="http://www.w3.org/2000/svg" xmlns:xlink="http://www.w3.org/1999/xlink" x="0px" y="0px"
	 viewBox="0 0 1920 1200" enable-background="new 0 0 1920 1200" xml:space="preserve">
<rect fill="#DD7272" width="1920" height="1200"/>
<path fill="#4D4D4D" d="M1213.5,619.9h-453c-6.6,0-12,5.4-12,12v258.9c0,6.6,5.4,12,12,12h453c6.6,0,12-5.4,12-12V631.9
	C1225.5,625.3,1220.1,619.9,1213.5,619.9z"/>
<path fill="#CCCCCC" d="M722,893h195.7l6.9,10h125.8l6.3-10H1252v9.8c0,0-0.4,8.8-6.7,9.5c-6.3,0.7-514.3,0-514.3,0s-8-2.7-9-7.5
	V893z"/>
<polygon fill="#F2F2F2" points="722,893 722,886.6 1252.4,886.8 1252.4,893 1056.3,893 1050.4,903 925.1,903 917.7,893 "/>
<rect x="770.3" y="645.9" fill="#92C8F7" width="433.9" height="216.9"/>
<path fill="#F9E48A" d="M199,657L199,657c-6.4,0-11.6,5.2-11.6,11.6v208.2c0,6.4,5.2,11.6,11.6,11.6h0c6.4,0,11.6-5.2,11.6-11.6
	V668.6C210.7,662.2,205.4,657,199,657z"/>
<path fill="#F7AA4D" d="M98.9,915.6c0,0,99.3-93.1,200.4,1L98.9,915.6z"/>
<path fill="#F9E48A" d="M320.5,415.3L320.5,415.3c-5.7-3-12.7-0.7-15.7,4.9L194.1,632.8c-3,5.7-0.7,12.7,4.9,15.7l0,0
	c5.7,3,12.7,0.7,15.7-4.9L325.5,431C328.4,425.4,326.2,418.3,320.5,415.3z"/>
<circle fill="#F7AA4D" cx="201" cy="650.8" r="22.5"/>
<path fill="#F9E48A" d="M586.2,349.5L586.2,349.5c-1.5-6.2-7.8-10.1-14-8.7l-233.3,54.5c-6.2,1.5-10.1,7.8-8.7,14v0
	c1.5,6.2,7.8,10.1,14,8.7l233.3-54.5C583.8,362,587.7,355.7,586.2,349.5z"/>
<circle fill="#F7AA4D" cx="327" cy="413.8" r="22.5"/>
<g>
	<path fill="#F7AA4D" d="M722.5,362.3l-108.4,44c-6.1,2.5-13.1-0.5-15.6-6.6l-31.7-78.1c-2.5-6.1,0.5-13.1,6.6-15.6l108.4-44
		c6.1-2.5,13.1,0.5,15.6,6.6l31.7,78.1C731.6,352.8,728.6,359.8,722.5,362.3z"/>
	<polyline fill="#F7AA4D" points="688.1,397.1 572.7,443.9 592.1,378.9 719.5,327.2 779.2,360.1 663.1,407.2 	"/>
	<path fill="#F7AA4D" d="M652.3,324.8l-13.2,5.4c-3,1.2-6.6-0.2-7.8-3.3l-20.5-50.4c-1.2-3,0.2-6.6,3.3-7.8l13.2-5.4
		c3-1.2,6.6,0.2,7.8,3.3l20.5,50.4C656.9,320.1,655.4,323.6,652.3,324.8z"/>
</g>
<g>
	<rect x="1547.7" y="580.2" fill="#4D4D4D" width="260.4" height="336.5"/>
	<g>
		<circle fill="#333333" cx="1678.1" cy="654.6" r="58.3"/>
		<circle fill="#CCCCCC" cx="1678.1" cy="654.6" r="44.2"/>
		<circle fill="#333333" cx="1678.1" cy="654.6" r="19.8"/>
	</g>
	<g>
		<circle fill="#333333" cx="1677.6" cy="813" r="81.9"/>
		<circle fill="#CCCCCC" cx="1677.6" cy="813" r="62"/>
		<circle fill="#333333" cx="1677.6" cy="813" r="27.8"/>
	</g>
</g>
<rect x="305.7" y="582.2" fill="#4D4D4D" width="260.4" height="336.5"/>
<g>
	<circle fill="#333333" cx="436.1" cy="656.6" r="58.3"/>
	<circle fill="#CCCCCC" cx="436.1" cy="656.6" r="44.2"/>
	<circle fill="#333333" cx="436.1" cy="656.6" r="19.8"/>
</g>
<g>
	<circle fill="#333333" cx="435.6" cy="815" r="81.9"/>
	<circle fill="#CCCCCC" cx="435.6" cy="815" r="62"/>
	<circle fill="#333333" cx="435.6" cy="815" r="27.8"/>
</g>
<g>
	<path fill="#FFFFFF" d="M620,915.5v-80.3c0-3.8,2.8-7.2,6.2-7.2h72.2c3.4,0,6.5,3.4,6.5,7.2v78.8C672,925.8,644,923.3,620,915.5z"
		/>
	<path fill="#FFFFFF" d="M620,852.5c0,0-40,13.5,0,28.5v8c0,0-62-22,0-44.9V852.5z"/>
</g>
<g>
	<rect x="89.8" y="911.8" fill="#B2AAA6" width="1740.4" height="103.8"/>
	<rect x="244.6" y="1050.2" fill="#9E918B" width="59.6" height="149.8"/>
	<rect x="1618.7" y="1050.2" fill="#9E918B" width="59.6" height="149.8"/>
	<rect x="173.5" y="1015.6" fill="#9E918B" width="1573.1" height="34.6"/>
</g>
<path fill="#FFFFFF" d="M668.8,679.4c0,0-15,30,5.6,66.5c20.6,36.5-5.4,72.2-5.4,72.2s27.1-12.8,16.9-58.6
	C675.7,713.7,669.1,748.9,668.8,679.4z"/>
<path fill="#FFFFFF" d="M640.8,679.4c0,0-15,30,5.6,66.5c20.6,36.5-5.4,72.2-5.4,72.2s27.1-12.8,16.9-58.6
	C647.7,713.7,641.1,748.9,640.8,679.4z"/>
<g>
	
		<rect x="1336.2" y="757.3" transform="matrix(0.9749 -0.2227 0.2227 0.9749 -151.6531 320.8409)" fill="#E5C230" width="21.3" height="151.1"/>
	<polygon fill="#CCCCCC" points="1319.2,761.9 1314,739.5 1335.5,734.6 1340.4,756.8 	"/>
	<path fill="#F94654" d="M1314,739.5l-1.8-7.8c0,0,10.6-7.3,21.4-4.9l1.8,7.8L1314,739.5z"/>
</g>
<g>
	
		<rect x="1357.7" y="759.7" transform="matrix(0.9972 -7.542938e-02 7.542938e-02 0.9972 -59.1042 105.5966)" fill="#E5C230" width="21.3" height="151.1"/>
	<polygon fill="#CCCCCC" points="1351.6,761 1349.9,738.1 1371.8,736.4 1373.3,759.1 	"/>
	<path fill="#F94654" d="M1349.9,738.1l-0.6-8c0,0,11.6-5.6,21.9-1.7l0.6,8L1349.9,738.1z"/>
</g>
<polygon opacity="0.27" fill="#FFFFFF" points="572.5,444.3 353.8,1016 1335,1016 779.2,360.1 "/>
<path opacity="0.25" fill="#FFFFFF" d="M1312.3,731.7c0,0,5.5-3.2,8.4-4l13.1,57.2l-8.8,0.1L1312.3,731.7z"/>
<path opacity="0.25" fill="#FFFFFF" d="M1349.3,730c0,0,5.6-2.6,9.8-2.9l4.1,57.9h-9.3L1349.3,730z"/>
<g>
	
		<rect x="1385.5" y="579.7" transform="matrix(0.9915 0.1299 -0.1299 0.9915 107.9894 -176.9878)" fill="#FCEE21" width="51" height="319.5"/>
	<line fill="#333333" x1="1455.3" y1="601.5" x2="1430.5" y2="598.3"/>
	<line fill="#333333" x1="1453" y1="619.4" x2="1440.1" y2="617.7"/>
	<line fill="#333333" x1="1451.1" y1="633.3" x2="1438.2" y2="631.6"/>
	<line fill="#333333" x1="1448.8" y1="651.1" x2="1424" y2="647.9"/>
	<line fill="#333333" x1="1448.8" y1="651.1" x2="1424" y2="647.9"/>
	<line fill="#333333" x1="1446.5" y1="669" x2="1433.6" y2="667.3"/>
	<line fill="#333333" x1="1444.6" y1="682.9" x2="1431.8" y2="681.2"/>
	<line fill="#333333" x1="1442.3" y1="700.7" x2="1417.5" y2="697.5"/>
	<line fill="#333333" x1="1442.3" y1="700.7" x2="1417.5" y2="697.5"/>
	<line fill="#333333" x1="1440" y1="718.6" x2="1427.1" y2="716.9"/>
	<line fill="#333333" x1="1438.2" y1="732.4" x2="1425.3" y2="730.7"/>
	<line fill="#333333" x1="1434.8" y1="750.1" x2="1410" y2="746.9"/>
	<line fill="#333333" x1="1435.8" y1="750.3" x2="1411" y2="747"/>
	<line fill="#333333" x1="1433.5" y1="768.1" x2="1420.6" y2="766.4"/>
	<line fill="#333333" x1="1431.7" y1="782" x2="1418.8" y2="780.3"/>
	<line fill="#333333" x1="1429.3" y1="799.9" x2="1404.5" y2="796.6"/>
	<line fill="#333333" x1="1428.3" y1="799.7" x2="1403.5" y2="796.5"/>
	<line fill="#333333" x1="1426" y1="817.6" x2="1413.1" y2="815.9"/>
	<line fill="#333333" x1="1424.2" y1="831.5" x2="1411.3" y2="829.8"/>
	<line fill="#333333" x1="1421.8" y1="849.3" x2="1397" y2="846.1"/>
	<line fill="#333333" x1="1420.5" y1="867.3" x2="1407.6" y2="865.6"/>
	<line fill="#333333" x1="1418.7" y1="881.2" x2="1405.8" y2="879.5"/>
</g>
<polygon opacity="0.25" fill="#FFFFFF" points="1379,785 1405,785 1433.5,581.3 1406.5,577.8 "/>
<g>
	<path fill="#0000FF" d="M1384.8,735.3l-1.4-10c0,0,6.3-3.5,10.7-1.5l1.4,10L1384.8,735.3z"/>
	<path fill="#0000FF" d="M1397.5,737.7c0,0,17.3,9.3,4.5,31.6l0.3,2.4c0,0,22-20.3-4.8-35.9L1397.5,737.7z"/>
	
		<rect x="1389.1" y="733.3" transform="matrix(0.9901 -0.1405 0.1405 0.9901 -97.0409 204.1912)" fill="#7373F9" width="17" height="112.1"/>
</g>
<polyline fill="#A2D394" points="1417,912 1339,912 1306,785 1450,785 1417,912 1339,912 "/>
<polygon opacity="0.25" fill="#FFFFFF" points="1306,785 1339,912 1397.6,911.8 1354,785 "/>
<path opacity="0.25" fill="#FFFFFF" d="M1388,785h9l-9-61.5c0,0-2.4,0.5-4.6,1.7l1.3,9.3l-3.4,0.4L1388,785z"/>
<polygon opacity="0.25" fill="#FFFFFF" points="1548,580.2 1705.8,911.4 1548,912 "/>
<rect x="1159.5" y="18.1" fill="#C69C6D" width="393.1" height="482.2"/>
<rect x="1172.9" y="32.8" fill="#FFFFFF" stroke="#F2F2F2" stroke-miterlimit="10" width="366.2" height="452.8"/>
<g>
	<path fill="#CCCCCC" d="M1377.8,358.8h-43.6c-6.6,0-12-5.4-12-12v-22.2c0-6.6,5.4-12,12-12h43.6c6.6,0,12,5.4,12,12v22.2
		C1389.8,353.4,1384.4,358.8,1377.8,358.8z"/>
	<g>
		<path fill="#F7CF2B" d="M1323,314h66.8c0,0-1.9-9.2,5.7-22.8s20.5-30.9,25.1-49.1c4.6-18.2,6.6-35.1-3-54.3
			c-9.6-19.2-25.1-30.5-41.7-34.4c-16.5-4-26.7-3.7-41.3,0.3"/>
		<path fill="#F7CF2B" d="M1390,314h-67.7c0,0,1.9-9.2-5.7-22.8c-7.6-13.6-20.5-30.9-25.1-49.1s-6.6-35.1,3-54.3
			c9.6-19.2,25.1-30.5,41.7-34.4c16.5-4,27.2-3.7,41.7,0.3"/>
	</g>
	<rect x="1322.2" y="313.8" fill="#666666" width="67.6" height="8.2"/>
	<rect x="1346.4" y="358.8" fill="#4D4D4D" width="19.8" height="9.2"/>
</g>
<path fill="#FFFFFF" d="M1326.8,168.1c0,0-41.9,12.6-25.2,69.5C1301.6,237.5,1292.4,200,1326.8,168.1z"/>
<line fill="#F7CF2B" stroke="#F7931E" stroke-width="7" stroke-miterlimit="10" x1="1453" y1="232.5" x2="1511" y2="232.5"/>
<line fill="#F7CF2B" stroke="#F7931E" stroke-width="7" stroke-miterlimit="10" x1="1355.5" y1="114" x2="1355.5" y2="56"/>
<line fill="#F7CF2B" stroke="#F7931E" stroke-width="7" stroke-miterlimit="10" x1="1435.5" y1="146" x2="1476.5" y2="105"/>
<line fill="#F7CF2B" stroke="#F7931E" stroke-width="7" stroke-miterlimit="10" x1="1271.5" y1="146" x2="1230.5" y2="105"/>
<line fill="#F7CF2B" stroke="#F7931E" stroke-width="7" stroke-miterlimit="10" x1="1201" y1="232.5" x2="1259" y2="232.5"/>
<polygon opacity="0.25" fill="#FFFFFF" points="1159.2,120.1 1498.5,500 1159,500 "/>
<g>
	<circle fill="#CCCCCC" cx="330" cy="150.4" r="125.4"/>
	<circle fill="#FFFFFF" cx="330" cy="150.4" r="103.8"/>
	<circle fill="#1A1A1A" cx="330.9" cy="149.9" r="10.2"/>
	<polygon fill="#1A1A1A" points="322.1,145 330,53.4 339.8,145 	"/>
	<polygon fill="#1A1A1A" points="323.5,144.7 287.9,188.4 332.4,160.1 	"/>
</g>
</svg>
