<?xml version="1.0" encoding="utf-8"?>
<!-- Generator: Adobe Illustrator 18.1.1, SVG Export Plug-In . SVG Version: 6.00 Build 0)  -->
<!DOCTYPE svg PUBLIC "-//W3C//DTD SVG 1.1//EN" "http://www.w3.org/Graphics/SVG/1.1/DTD/svg11.dtd">
<svg version="1.1" id="Layer_1" xmlns="http://www.w3.org/2000/svg" xmlns:xlink="http://www.w3.org/1999/xlink" x="0px" y="0px"
	 viewBox="0 0 1920 1200" enable-background="new 0 0 1920 1200" xml:space="preserve">
<linearGradient id="SVGID_1_" gradientUnits="userSpaceOnUse" x1="960" y1="1200" x2="960" y2="-4.310004e-08">
	<stop  offset="0" style="stop-color:#FFFFFF"/>
	<stop  offset="0.2384" style="stop-color:#FCFEFF"/>
	<stop  offset="0.4137" style="stop-color:#F3FDFE"/>
	<stop  offset="0.5688" style="stop-color:#E3F9FD"/>
	<stop  offset="0.7122" style="stop-color:#CCF5FC"/>
	<stop  offset="0.8475" style="stop-color:#AFEFFA"/>
	<stop  offset="0.9752" style="stop-color:#8CE9F8"/>
	<stop  offset="1" style="stop-color:#84E7F7"/>
</linearGradient>
<rect fill="url(#SVGID_1_)" width="1920" height="1200"/>
<g>
	<g>
		<circle fill="#FFFFFF" cx="649" cy="52.2" r="18.9"/>
		<circle fill="#FFFFFF" cx="663.2" cy="33.7" r="9.1"/>
		<circle fill="#FFFFFF" cx="675.8" cy="43.2" r="12.6"/>
		<circle fill="#FFFFFF" cx="693.9" cy="52.1" r="16.9"/>
		<circle fill="#FFFFFF" cx="680.8" cy="28.7" r="13"/>
		<circle fill="#FFFFFF" cx="672.2" cy="56" r="10.6"/>
	</g>
	<circle fill="#FFFFFF" cx="704.2" cy="32.2" r="12.6"/>
</g>
<polyline fill="#603813" points="584,277 1920,277 1919.1,486 0,486 0,277 1335,277 "/>
<rect y="940.3" fill="#15F987" width="1919.4" height="259.7"/>
<rect y="486.2" fill="#C69C6D" width="1919.4" height="454.1"/>
<rect y="892" fill="#B3B3B3" width="1920" height="48.3"/>
<rect x="783.7" y="887.8" fill="#CCCCCC" width="352.7" height="25.5"/>
<rect x="770.7" y="913.4" fill="#F2F2F2" width="378.2" height="31.1"/>
<polyline fill="#E5BB91" stroke="#FFFFFF" stroke-width="15" stroke-miterlimit="10" points="1136,887.5 643.5,887.5 643.5,376.9 
	958.6,68.5 961.6,68.5 1276.5,376.9 1276.5,887.8 783.8,887.5 "/>
<rect x="818.4" y="579.2" fill="#F4CCA4" stroke="#C69C6D" stroke-width="15" stroke-miterlimit="10" width="284.1" height="308.6"/>
<line fill="none" stroke="#C69C6D" stroke-width="15" stroke-miterlimit="10" x1="960.5" y1="579.2" x2="958.6" y2="887.8"/>
<rect x="826.4" y="586.6" fill="#6CC3EF" stroke="#FFFFFF" stroke-width="5" stroke-miterlimit="10" width="126.6" height="128.9"/>
<rect x="967.5" y="586.6" fill="#6CC3EF" stroke="#FFFFFF" stroke-width="5" stroke-miterlimit="10" width="127.9" height="128.9"/>
<polyline fill="#666666" points="879,1200 1230,1200 1149.3,944 770.8,944 690.2,1200 1041,1200 "/>
<circle fill="#CCCCCC" cx="959.5" cy="234.9" r="87"/>
<circle fill="#FFFFFF" cx="959.5" cy="234.9" r="72"/>
<path fill="#B3B3B3" d="M806.4,900.6H639.5c-6.6,0-12-5.4-12-12V814c0-6.6,5.4-12,12-12h166.9c6.6,0,12,5.4,12,12v74.6
	C818.4,895.2,813,900.6,806.4,900.6z"/>
<path fill="#B3B3B3" d="M1281.5,900.6h-166.9c-6.6,0-12-5.4-12-12V814c0-6.6,5.4-12,12-12h166.9c6.6,0,12,5.4,12,12v74.6
	C1293.5,895.2,1288.1,900.6,1281.5,900.6z"/>
<circle fill="#1A1A1A" cx="960.2" cy="234.6" r="7.1"/>
<polygon fill="#1A1A1A" points="954,231 959.5,167.5 966.3,231 "/>
<polygon fill="#1A1A1A" points="955,231 930.3,261.3 961.2,241.7 "/>
<rect x="11.7" y="498.3" fill="#90CAF4" stroke="#FFFFFF" stroke-width="5" stroke-miterlimit="10" width="149.2" height="91.7"/>
<rect x="159.1" y="498.3" fill="#90CAF4" stroke="#FFFFFF" stroke-width="5" stroke-miterlimit="10" width="149.2" height="91.7"/>
<rect x="11.7" y="590" fill="#90CAF4" stroke="#FFFFFF" stroke-width="5" stroke-miterlimit="10" width="149.2" height="91.7"/>
<rect x="159.1" y="590" fill="#90CAF4" stroke="#FFFFFF" stroke-width="5" stroke-miterlimit="10" width="149.2" height="91.7"/>
<rect x="324.7" y="497.8" fill="#90CAF4" stroke="#FFFFFF" stroke-width="5" stroke-miterlimit="10" width="149.2" height="91.7"/>
<rect x="472.2" y="497.8" fill="#90CAF4" stroke="#FFFFFF" stroke-width="5" stroke-miterlimit="10" width="149.2" height="91.7"/>
<rect x="324.7" y="589.6" fill="#90CAF4" stroke="#FFFFFF" stroke-width="5" stroke-miterlimit="10" width="149.2" height="91.7"/>
<rect x="472.2" y="589.6" fill="#90CAF4" stroke="#FFFFFF" stroke-width="5" stroke-miterlimit="10" width="149.2" height="91.7"/>
<rect x="276.9" y="725.4" fill="#0071BC" width="99.7" height="166.6"/>
<circle fill="#F9C953" cx="365.2" cy="826.1" r="8.1"/>
<rect x="1298.6" y="496.8" fill="#90CAF4" stroke="#FFFFFF" stroke-width="5" stroke-miterlimit="10" width="149.2" height="91.7"/>
<rect x="1446.1" y="496.8" fill="#90CAF4" stroke="#FFFFFF" stroke-width="5" stroke-miterlimit="10" width="149.2" height="91.7"/>
<rect x="1298.6" y="588.6" fill="#90CAF4" stroke="#FFFFFF" stroke-width="5" stroke-miterlimit="10" width="149.2" height="91.7"/>
<rect x="1446.1" y="588.6" fill="#90CAF4" stroke="#FFFFFF" stroke-width="5" stroke-miterlimit="10" width="149.2" height="91.7"/>
<rect x="1609.8" y="496.8" fill="#90CAF4" stroke="#FFFFFF" stroke-width="5" stroke-miterlimit="10" width="149.2" height="91.7"/>
<rect x="1757.2" y="496.8" fill="#90CAF4" stroke="#FFFFFF" stroke-width="5" stroke-miterlimit="10" width="149.2" height="91.7"/>
<rect x="1609.8" y="588.6" fill="#90CAF4" stroke="#FFFFFF" stroke-width="5" stroke-miterlimit="10" width="149.2" height="91.7"/>
<rect x="1757.2" y="588.6" fill="#90CAF4" stroke="#FFFFFF" stroke-width="5" stroke-miterlimit="10" width="149.2" height="91.7"/>
<g>
	<rect x="1545.9" y="725.4" fill="#0071BC" width="99.7" height="166.6"/>
	<circle fill="#F9C953" cx="1634.2" cy="826.1" r="8.1"/>
</g>
<path fill="#CCCCCC" d="M158.6,311.9L158.6,311.9c-4.7,0-8.5,3.8-8.5,8.5v657c0,4.7,3.8,8.5,8.5,8.5h0c4.7,0,8.5-3.8,8.5-8.5v-657
	C167.1,315.7,163.2,311.9,158.6,311.9z"/>
<linearGradient id="SVGID_2_" gradientUnits="userSpaceOnUse" x1="160.8846" y1="980.8568" x2="160.8846" y2="1013.7174">
	<stop  offset="0" style="stop-color:#FFFFFF"/>
	<stop  offset="0.1115" style="stop-color:#EEEEEE"/>
	<stop  offset="0.3184" style="stop-color:#D4D4D4"/>
	<stop  offset="0.5319" style="stop-color:#C2C2C2"/>
	<stop  offset="0.7544" style="stop-color:#B7B7B7"/>
	<stop  offset="1" style="stop-color:#B3B3B3"/>
</linearGradient>
<path fill="url(#SVGID_2_)" d="M195.4,1013.7h-69c-6.6,0-12-5.4-12-12v-8.9c0-6.6,5.4-12,12-12h69c6.6,0,12,5.4,12,12v8.9
	C207.4,1008.3,202,1013.7,195.4,1013.7z"/>
<polygon fill="#D4ECF9" points="150,619.5 65.4,651 150,629.7 "/>
<polygon fill="#D4ECF9" points="619,508.5 534.4,540 619,518.7 "/>
<polygon fill="#D4ECF9" points="470,617.5 385.4,649 470,627.7 "/>
<polygon fill="#D4ECF9" points="306,508.5 221.4,540 306,518.7 "/>
<polygon fill="#D4ECF9" points="1530.3,499 1508.4,547.6 1540,499 "/>
<polygon fill="#D4ECF9" points="1399.3,591 1377.4,639.6 1409,591 "/>
<polygon fill="#D4ECF9" points="1843.3,499 1821.4,547.6 1853,499 "/>
<polygon fill="#D4ECF9" points="1702.3,591 1680.4,639.6 1712,591 "/>
<polygon fill="#D4ECF9" points="934,589 951,589 886.9,662.8 "/>
<polygon fill="#D4ECF9" points="1076,589 1093,589 1028.9,662.8 "/>
<circle fill="#FFFFFF" cx="281.9" cy="114.9" r="31.5"/>
<g>
	<circle fill="#FFFFFF" cx="164.3" cy="129.4" r="57.6"/>
	<circle fill="#FFFFFF" cx="242.2" cy="129.4" r="39.4"/>
	<circle fill="#FFFFFF" cx="214.6" cy="157.6" r="43.1"/>
	<circle fill="#FFFFFF" cx="293" cy="101.2" r="52.6"/>
	<circle fill="#FFFFFF" cx="389" cy="114.4" r="58.7"/>
	<circle fill="#FFFFFF" cx="296.1" cy="154.2" r="63.9"/>
</g>
<g>
	<circle fill="#FFFFFF" cx="1776.4" cy="159.1" r="22.8"/>
	<circle fill="#FFFFFF" cx="1807.2" cy="159.1" r="15.6"/>
	<circle fill="#FFFFFF" cx="1796.3" cy="148" r="17.1"/>
	<circle fill="#FFFFFF" cx="1827.3" cy="170.3" r="20.8"/>
	<circle fill="#FFFFFF" cx="1865.3" cy="165.1" r="23.2"/>
	<circle fill="#FFFFFF" cx="1828.6" cy="149.4" r="25.3"/>
</g>
<g>
	<circle fill="#FFFFFF" cx="1631.5" cy="52" r="28"/>
	<circle fill="#FFFFFF" cx="1593.6" cy="52" r="19.2"/>
	<circle fill="#FFFFFF" cx="1607.1" cy="65.7" r="21"/>
	<circle fill="#FFFFFF" cx="1568.9" cy="38.2" r="25.6"/>
	<circle fill="#FFFFFF" cx="1522.2" cy="44.7" r="28.6"/>
	<circle fill="#FFFFFF" cx="1567.4" cy="64" r="31.1"/>
</g>
<g>
	<g>
		<ellipse fill="#FFFFFF" cx="1405.9" cy="158" rx="73.6" ry="62.2"/>
		<ellipse fill="#FFFFFF" cx="1350.6" cy="97.2" rx="35.7" ry="30.2"/>
		<ellipse fill="#FFFFFF" cx="1301.2" cy="128.6" rx="49.1" ry="41.5"/>
		<ellipse fill="#FFFFFF" cx="1230.8" cy="157.9" rx="65.9" ry="55.7"/>
		<ellipse fill="#FFFFFF" cx="1281.6" cy="80.7" rx="50.9" ry="43"/>
		<ellipse fill="#FFFFFF" cx="1315.5" cy="170.5" rx="41.3" ry="34.9"/>
	</g>
	<ellipse fill="#FFFFFF" cx="1190.3" cy="92.1" rx="49.2" ry="41.6"/>
</g>
<path fill="#FFFFFF" d="M167,325h190c0,0,23,0.5,28,15.9V443v15c0,0-4.4-13.3-27.9-15S167,443,167,443V325z"/>
<text transform="matrix(1 0 0 1 209.3831 407.718)" fill="#FF8484" font-family="'MyriadPro-Regular'" font-size="90.4616">&lt;/&gt;</text>
<polygon fill="#FFFFFF" points="770,438 770,505 1149,505 1148.8,438 1149,409 770,409 "/>
<path fill="#FCEE21" d="M820.7,427.8c0,6.6-5.3,11.9-11.9,11.9c-6.6,0-11.9-5.3-11.9-11.9c0-1.5,0.3-2.9,0.7-4.2
	c1.7-4.5,6-7.7,11.2-7.7C815.3,415.9,820.7,421.3,820.7,427.8z"/>
<circle fill="#E5BB91" cx="808.8" cy="427.8" r="7.4"/>
<path fill="#FCEE21" d="M1094.9,428.8c0,6.6,5.3,11.9,11.9,11.9s11.9-5.3,11.9-11.9c0-1.5-0.3-2.9-0.7-4.2c-1.7-4.5-6-7.7-11.2-7.7
	C1100.2,416.9,1094.9,422.3,1094.9,428.8z"/>
<circle fill="#E5BB91" cx="1106.8" cy="428.8" r="7.4"/>
<g>
	<text transform="matrix(1 0 0 1 795.6104 476.9722)" fill="#46BDF9" font-family="'Futura-Medium'" font-size="45.491">Hack</text>
	<g>
		<polygon fill="#FF8484" points="905,431 955,431 955,471.1 930,496.3 905,471.2 		"/>
		<text transform="matrix(1 0 0 1 913.5928 477.5278)" fill="#FFFFFF" font-family="'Futura-Medium'" font-size="45.491">U</text>
	</g>
	<text transform="matrix(1 0 0 1 956.8105 476.9722)" fill="#46BDF9" font-family="'Futura-Medium'" font-size="45.4918">niversity</text>
</g>
<path fill="none" stroke="#E6E6E6" stroke-width="4" stroke-miterlimit="10" d="M1269,379.7c7.3,0.6-294.8,137.1-618.4,0"/>
<path fill="#FCEE21" d="M802.4,424c0,0-1.1,1.8-1.1,3.9l-4.5-0.9c0,0,0.1-2,1-3.9L802.4,424z"/>
<path fill="#FCEE21" d="M1112.8,424.5l4.7-0.9c0,0,1.2,2.7,1.1,4l-4.4,0.8C1114.2,428.4,1113.8,425.8,1112.8,424.5z"/>
<path fill="#FFFFFF" d="M770,415v8l26.9,4.4c0,0,0.2-3.4,1.4-5.2L770,415z"/>
<path fill="#FFFFFF" d="M1117.3,423.4c0,0,1.4,2.9,1.3,5.1l30.3-6.3l0-5.7L1117.3,423.4z"/>
</svg>
