<?xml version="1.0" encoding="utf-8"?>
<!-- Generator: Adobe Illustrator 18.1.1, SVG Export Plug-In . SVG Version: 6.00 Build 0)  -->
<svg version="1.1" id="Layer_1" xmlns="http://www.w3.org/2000/svg" xmlns:xlink="http://www.w3.org/1999/xlink" x="0px" y="0px"
	 viewBox="0 0 370 371" enable-background="new 0 0 370 371" xml:space="preserve">
<polygon fill="#46BDF9" points="109.9,368.5 3,260.8 3,109.9 109.9,3.5 260.8,3.5 368,109.9 368,260.8 260.8,368.5 "/>
<path fill="#332033" d="M173.8,257.6c0,0-35.9,43-49.9,11.4c0,0-32.2-0.6-33.5-59.6c0,0-12.2,12.7-22.5-51.7c0,0,1.3-61.2,37.5-87.2
	H269c0,0,37.3,21.5,35.4,84.2S293,197.9,293,197.9s-20.9,70.8-26.9,47.4c0,0-17.6,46.6-28,12.4c0,0-19.5,26.4-33.4,0L173.8,257.6z"
	/>
<path fill="#332033" d="M67.9,157.7c0,0-3.3,73.7,11.5,65.4c0,0-2.3,60.6,33.6,36.6"/>
<path fill="#332033" d="M303.6,172.9c0,0,0.6,88.5-25,58.4c0,0-2.6,75.6-26.1,34c0,0-16.7,36.1-25.1-3c0,0-5.7,24.5-28.2,5.7
	c-22.5-18.8-40.7,4.1-40.7,4.1"/>
<ellipse fill="#FCF6B1" cx="187.7" cy="143.7" rx="108.3" ry="105.2"/>
<path fill="#FCF6B1" d="M199.4,284h-22.8c-6.6,0-12-5.4-12-12v-28.7c0-6.6,5.4-12,12-12h22.8c6.6,0,12,5.4,12,12V272
	C211.4,278.6,206,284,199.4,284z"/>
<path fill="#FCF6B1" d="M164.7,272.5l-28.1,16.8c0,0,49.4,42.9,103.8,0.1l-29-16.9H164.7z"/>
<path fill="#A590FC" d="M136.7,289.3c0,0-36.6,9.1-50.3,55.5l23.5,23.7H261l22.3-22.7c0,0-7.9-45.5-42.9-56.4
	C240.4,289.4,194,332.3,136.7,289.3z"/>
<path fill="#332033" d="M299.9,145.2l-53.5-31.8L239,82.9v30.6l-35.3-5.9L198,82.9v25.6c0,0-63.3-9.5-116,12.3
	c0,0-1.4-41.4,53.4-73.9c0,0,61.1-28.9,121,9.9C256.5,56.8,301.2,120.5,299.9,145.2z"/>
<ellipse fill="#FFFFFF" cx="141.6" cy="154.2" rx="27" ry="16.3"/>
<g>
	<circle fill="#42210B" cx="144.8" cy="154.2" r="13.6"/>
	<circle fill="#1A1A1A" cx="144.8" cy="154.2" r="9"/>
</g>
<ellipse fill="#FFFFFF" cx="235" cy="154.2" rx="26.9" ry="16.3"/>
<g>
	<circle fill="#42210B" cx="231.8" cy="154.2" r="13.6"/>
	<circle fill="#1A1A1A" cx="231.8" cy="154.2" r="9"/>
</g>
<ellipse fill="#FFE878" cx="187.7" cy="187.2" rx="15.3" ry="8.6"/>
<path fill="none" stroke="#808080" stroke-width="2" stroke-miterlimit="10" d="M154.4,214.4c0,0,33.7,28.5,66.3,0"/>
<path fill="#332033" d="M110.4,137.9c0,0,20.2-17.2,48.1-13.4C158.4,124.6,125.9,109.9,110.4,137.9z"/>
<path fill="#332033" d="M264.4,137.9c0,0-20.2-17.2-48.1-13.4C216.4,124.6,248.9,109.9,264.4,137.9z"/>
<polygon fill="#332033" points="108,111.4 80.5,163.2 74.1,130.2 83.1,105.6 108.4,103 "/>
<path fill="#332033" d="M256.5,56.8c0,0,35.5,37.2,41.7,67.5l-14-1.3L256.5,56.8z"/>
<path fill="#332033" d="M256.5,56.8c0,0,8,6.4,25.7,25.4s-17.7,6.1-17.7,6.1L256.5,56.8z"/>
</svg>
