<?xml version="1.0" encoding="utf-8"?>
<!-- Generator: Adobe Illustrator 18.1.1, SVG Export Plug-In . SVG Version: 6.00 Build 0)  -->
<!DOCTYPE svg PUBLIC "-//W3C//DTD SVG 1.1//EN" "http://www.w3.org/Graphics/SVG/1.1/DTD/svg11.dtd">
<svg version="1.1" id="Layer_1" xmlns="http://www.w3.org/2000/svg" xmlns:xlink="http://www.w3.org/1999/xlink" x="0px" y="0px"
	 viewBox="0 0 374.8 374.8" enable-background="new 0 0 374.8 374.8" xml:space="preserve">
<polygon fill="#FF8484" points="111.9,369.6 5,262.3 5,111.4 111.9,4.6 262.8,4.6 370,111.4 370,262.3 262.8,369.6 "/>
<ellipse fill="#FCF79A" cx="189.7" cy="145.2" rx="108.3" ry="105.2"/>
<path fill="#333333" d="M81.4,138.5l38.4-24.6l17.4-1.1l17.3-9.7l26.7,5.1l56.4,5.1l60.4,25.3c0,0,9-31.8,5.4-50.6l-5.4,7.2
	l-10.1-31.1l-3.3,10.8c0,0-18.8-25.3-71.2-38.3S109,68.4,109,68.4S74.1,113.2,81.4,138.5z"/>
<path fill="#4D4D4D" d="M214.8,148.8c0,0,30.2-21.3,51.7,9.5C266.5,158.3,242.6,138.2,214.8,148.8z"/>
<path fill="#4D4D4D" d="M165.5,148.8c0,0-30.2-21.3-51.7,9.5C113.8,158.3,137.6,138.2,165.5,148.8z"/>
<ellipse fill="#F9E453" cx="190.3" cy="177.7" rx="15.3" ry="8.6"/>
<path fill="#A2FCC7" d="M135,286.6v-10l8-3.1v-5.9h3l6.7-6.9c0,0,36.3-21.9,44.3-1.5v27.5H135z"/>
<path fill="#A2FCC7" d="M243,286.6v-10l-8-3.1v-5.9h-3l-6.7-6.9c0,0-36.3-21.9-44.3-1.5v27.5H243z"/>
<path fill="#E6E6E6" d="M213.4,273.5c0,0,78.5,25.4,74.3,71.1l-24.8,25H111.9l-24.8-24.9c-2.4-45.7,79.6-71.2,79.6-71.2"/>
<path fill="#FCF79A" d="M201.4,285.5h-22.8c-6.6,0-12-5.4-12-12v-28.7c0-6.6,5.4-12,12-12h22.8c6.6,0,12,5.4,12,12v28.7
	C213.4,280.1,208,285.5,201.4,285.5z"/>
<polygon fill="#A2FCC7" points="172.7,283.7 151,313.9 151,354.6 154,354.6 156,354.6 155.7,313.9 176.6,285.3 "/>
<path fill="#A2FCC7" d="M201.3,285.5c0,0-4.2,32.6,0.1,69.1h4.5c0,0-2.5-23.9-1.3-69.5L201.3,285.5z"/>
<path fill="#1A1A1A" d="M108.8,135.8c0,0,21.3-32.9,62.5-10.8C171.3,125,132.2,119.6,108.8,135.8z"/>
<path fill="#1A1A1A" d="M271.3,135.8c0,0-21.3-32.9-62.5-10.8C208.8,125,247.9,119.6,271.3,135.8z"/>
<path fill="#FFFFFF" d="M157.9,201.3c0,0,31,9.1,64-0.3v15.6c0,0,0.4,11-8,11c-8.4,0-41,0-41,0s-14.9,1.6-15-5.8
	C157.8,214.5,157.9,201.3,157.9,201.3z"/>
</svg>
