<?xml version="1.0" encoding="utf-8"?>
<!-- Generator: Adobe Illustrator 18.1.1, SVG Export Plug-In . SVG Version: 6.00 Build 0)  -->
<!DOCTYPE svg PUBLIC "-//W3C//DTD SVG 1.1//EN" "http://www.w3.org/Graphics/SVG/1.1/DTD/svg11.dtd">
<svg version="1.1" id="Layer_1" xmlns="http://www.w3.org/2000/svg" xmlns:xlink="http://www.w3.org/1999/xlink" x="0px" y="0px"
	 viewBox="0 0 370 371" enable-background="new 0 0 370 371" xml:space="preserve">
<polygon fill="#46BDF9" points="109.9,368.5 3,260.8 3,109.9 109.9,3.5 260.8,3.5 368,109.9 368,260.8 260.8,368.5 "/>
<path fill="#332033" d="M188,294.8l-70.8,13.8c0,0-40,6.3-24.6-39.8s-25.4-71.7-22.2-94.5c3.3-22.9,10.9-71,17.7-75.5
	C95,94.2,218,58.9,218,58.9l48.1,10.7c0,0,10.1,7.6,17.2,15.4s18,53.4,18,53.4s4.3,31.4-5.3,65.1c-9.6,33.7,19.9,70.6-8.1,91.3
	S188,294.8,188,294.8z"/>
<path fill="#FFBB88" d="M92.6,351.1c0,0,17-55.7,68.7-72.1l53.2-0.6c0,0,42.7,13.4,63.6,72.7l-17.4,17.4H110L92.6,351.1z"/>
<ellipse fill="#FCF6B1" cx="187.7" cy="143.7" rx="108.3" ry="105.2"/>
<path fill="#FCF6B1" d="M199.4,284h-22.8c-6.6,0-12-5.4-12-12v-28.7c0-6.6,5.4-12,12-12h22.8c6.6,0,12,5.4,12,12V272
	C211.4,278.6,206,284,199.4,284z"/>
<path fill="#FCF6B1" d="M165,274.8c0,0,7.2,22.3,23.1,35.7c0,0,15.9-10.9,23.1-35.7C211.1,274.8,188,261.3,165,274.8z"/>
<path fill="#FFFFFF" d="M165,274.8c0,0,6.5,21,23.1,35.7c0,0,16-11.8,23.1-35.7l3.5,3.6c0,0-8.4,27-26.5,36.3
	c0,0-12.6-4.7-26.7-35.7L165,274.8z"/>
<path fill="#332033" d="M81.6,122.8c0,0,96.5-4.9,147.2-52.8c0,0,23.1,18.8,49.3,15.8c0,0-19.7-38-66.7-45.6c0,0-52.5-14.2-98.6,25
	C112.9,65.1,79.2,100.5,81.6,122.8z"/>
<ellipse fill="#FFE878" cx="187.7" cy="190.2" rx="15.3" ry="8.6"/>
<ellipse fill="#FFFFFF" cx="140.5" cy="156.9" rx="25.2" ry="20.2"/>
<ellipse fill="#FFFFFF" cx="235.5" cy="156.9" rx="25.2" ry="20.2"/>
<g>
	<circle fill="#42210B" cx="144.5" cy="156.9" r="14.7"/>
	<circle fill="#1A1A1A" cx="144.5" cy="156.9" r="9.4"/>
</g>
<g>
	<circle fill="#42210B" cx="231.5" cy="156.9" r="14.7"/>
	<circle fill="#1A1A1A" cx="231.5" cy="156.9" r="9.4"/>
</g>
<path fill="#332033" d="M217,80.4c0,0,28.2,27.1,72.8,28.1h2.2l-13.7-25.4L217,63.8V80.4z"/>
<path fill="#332033" d="M216.8,127.8c0,0,27.2-8.5,46.8,10C263.6,137.8,251.3,111.5,216.8,127.8z"/>
<path fill="#332033" d="M160.6,127.8c0,0-27.2-8.5-46.8,10C113.8,137.8,126,111.5,160.6,127.8z"/>
<path fill="#FFFFFF" d="M155.7,214.4c0,0,35.1,9,64.3,0C220,214.4,193.7,253.7,155.7,214.4z"/>
<path fill="#332033" d="M266.4,98.7c0,0,14,26.7,29.6,45l2.5-11.3l-8.5-27.8L266.4,98.7z"/>
<path fill="#332033" d="M97.3,118.8c0,0-5.3,21.2-21.2,43l2-27.3l3.4-15.7l16.9-3.4L97.3,118.8z"/>
<path fill="#332033" d="M94.6,127.3c0,0,94.2-15,134.5-33c0,0,21.8,29.1,58,33l-23.2-47.1l-65.6-13.1l-111,50.5L94.6,127.3z"/>
</svg>
