<?xml version="1.0" encoding="utf-8"?>
<!-- Generator: Adobe Illustrator 18.1.1, SVG Export Plug-In . SVG Version: 6.00 Build 0)  -->
<!DOCTYPE svg PUBLIC "-//W3C//DTD SVG 1.1//EN" "http://www.w3.org/Graphics/SVG/1.1/DTD/svg11.dtd">
<svg version="1.1" id="Layer_1" xmlns="http://www.w3.org/2000/svg" xmlns:xlink="http://www.w3.org/1999/xlink" x="0px" y="0px"
	 viewBox="0 0 4000 1200" enable-background="new 0 0 4000 1200" xml:space="preserve">
<rect fill="#DD7272" width="4000" height="1200"/>
<path fill="#4D4D4D" d="M2253.5,619.9h-453c-6.6,0-12,5.4-12,12v258.9c0,6.6,5.4,12,12,12h453c6.6,0,12-5.4,12-12V631.9
	C2265.5,625.3,2260.1,619.9,2253.5,619.9z"/>
<path fill="#CCCCCC" d="M1762,893h195.7l6.9,10h125.8l6.3-10H2292v9.8c0,0-0.4,8.8-6.7,9.5s-514.3,0-514.3,0s-8-2.7-9-7.5V893z"/>
<polygon fill="#F2F2F2" points="1762,893 1762,886.6 2292.4,886.8 2292.4,893 2096.3,893 2090.4,903 1965.1,903 1957.7,893 "/>
<rect x="1810.3" y="645.9" fill="#92C8F7" width="433.9" height="216.9"/>
<path fill="#F9E48A" d="M1239,657L1239,657c-6.4,0-11.6,5.2-11.6,11.6v208.2c0,6.4,5.2,11.6,11.6,11.6l0,0c6.4,0,11.6-5.2,11.6-11.6
	V668.6C1250.7,662.2,1245.4,657,1239,657z"/>
<path fill="#F7AA4D" d="M1138.9,915.6c0,0,99.3-93.1,200.4,1L1138.9,915.6z"/>
<path fill="#F9E48A" d="M1360.5,415.3L1360.5,415.3c-5.7-3-12.7-0.7-15.7,4.9l-110.7,212.5c-3,5.7-0.7,12.7,4.9,15.7v0
	c5.7,3,12.7,0.7,15.7-4.9L1365.5,431C1368.4,425.4,1366.2,418.3,1360.5,415.3z"/>
<circle fill="#F7AA4D" cx="1241" cy="650.8" r="22.5"/>
<path fill="#F9E48A" d="M1626.2,349.5L1626.2,349.5c-1.5-6.2-7.8-10.1-14-8.7l-233.3,54.5c-6.2,1.5-10.1,7.8-8.7,14v0
	c1.5,6.2,7.8,10.1,14,8.7l233.3-54.5C1623.8,362,1627.7,355.7,1626.2,349.5z"/>
<circle fill="#F7AA4D" cx="1367" cy="413.8" r="22.5"/>
<g>
	<path fill="#F7AA4D" d="M1762.5,362.3l-108.4,44c-6.1,2.5-13.1-0.5-15.6-6.6l-31.7-78.1c-2.5-6.1,0.5-13.1,6.6-15.6l108.4-44
		c6.1-2.5,13.1,0.5,15.6,6.6l31.7,78.1C1771.6,352.8,1768.6,359.8,1762.5,362.3z"/>
	<polyline fill="#F7AA4D" points="1728.1,397.1 1612.7,443.9 1632.1,378.9 1759.5,327.2 1819.2,360.1 1703.1,407.2 	"/>
	<path fill="#F7AA4D" d="M1692.3,324.8l-13.2,5.4c-3,1.2-6.6-0.2-7.8-3.3l-20.5-50.4c-1.2-3,0.2-6.6,3.3-7.8l13.2-5.4
		c3-1.2,6.6,0.2,7.8,3.3l20.5,50.4C1696.9,320.1,1695.4,323.6,1692.3,324.8z"/>
</g>
<g>
	<rect x="2587.7" y="580.2" fill="#4D4D4D" width="260.4" height="336.5"/>
	<g>
		<circle fill="#333333" cx="2718.1" cy="654.6" r="58.3"/>
		<circle fill="#CCCCCC" cx="2718.1" cy="654.6" r="44.2"/>
		<circle fill="#333333" cx="2718.1" cy="654.6" r="19.8"/>
	</g>
	<g>
		<circle fill="#333333" cx="2717.6" cy="813" r="81.9"/>
		<circle fill="#CCCCCC" cx="2717.6" cy="813" r="62"/>
		<circle fill="#333333" cx="2717.6" cy="813" r="27.8"/>
	</g>
</g>
<rect x="1345.7" y="582.2" fill="#4D4D4D" width="260.4" height="336.5"/>
<g>
	<circle fill="#333333" cx="1476.1" cy="656.6" r="58.3"/>
	<circle fill="#CCCCCC" cx="1476.1" cy="656.6" r="44.2"/>
	<circle fill="#333333" cx="1476.1" cy="656.6" r="19.8"/>
</g>
<g>
	<circle fill="#333333" cx="1475.6" cy="815" r="81.9"/>
	<circle fill="#CCCCCC" cx="1475.6" cy="815" r="62"/>
	<circle fill="#333333" cx="1475.6" cy="815" r="27.8"/>
</g>
<g>
	<path fill="#FFFFFF" d="M1660,915.5v-80.3c0-3.8,2.8-7.2,6.2-7.2h72.2c3.4,0,6.5,3.4,6.5,7.2v78.8
		C1712,925.8,1684,923.3,1660,915.5z"/>
	<path fill="#FFFFFF" d="M1660,852.5c0,0-40,13.5,0,28.5v8c0,0-62-22,0-44.9V852.5z"/>
</g>
<g>
	<rect x="1129.8" y="911.8" fill="#B2AAA6" width="1740.4" height="103.8"/>
	<rect x="1284.6" y="1050.2" fill="#9E918B" width="59.6" height="149.8"/>
	<rect x="2658.7" y="1050.2" fill="#9E918B" width="59.6" height="149.8"/>
	<rect x="1213.5" y="1015.6" fill="#9E918B" width="1573.1" height="34.6"/>
</g>
<path fill="#FFFFFF" d="M1708.8,679.4c0,0-15,30,5.6,66.5c20.6,36.5-5.4,72.2-5.4,72.2s27.1-12.8,16.9-58.6
	C1715.7,713.7,1709.1,748.9,1708.8,679.4z"/>
<path fill="#FFFFFF" d="M1680.8,679.4c0,0-15,30,5.6,66.5c20.6,36.5-5.4,72.2-5.4,72.2s27.1-12.8,16.9-58.6
	C1687.7,713.7,1681.1,748.9,1680.8,679.4z"/>
<g>
	
		<rect x="2376.2" y="757.3" transform="matrix(0.9749 -0.2227 0.2227 0.9749 -125.5371 552.4423)" fill="#E5C230" width="21.3" height="151.1"/>
	<polygon fill="#CCCCCC" points="2359.2,761.9 2354,739.5 2375.5,734.6 2380.4,756.8 	"/>
	<path fill="#F94654" d="M2354,739.5l-1.8-7.8c0,0,10.6-7.3,21.4-4.9l1.8,7.8L2354,739.5z"/>
</g>
<g>
	
		<rect x="2397.7" y="759.7" transform="matrix(0.9972 -7.542938e-02 7.542938e-02 0.9972 -56.1414 184.0432)" fill="#E5C230" width="21.3" height="151.1"/>
	<polygon fill="#CCCCCC" points="2391.6,761 2389.9,738.1 2411.8,736.4 2413.3,759.1 	"/>
	<path fill="#F94654" d="M2389.9,738.1l-0.6-8c0,0,11.6-5.6,21.9-1.7l0.6,8L2389.9,738.1z"/>
</g>
<polygon opacity="0.27" fill="#FFFFFF" points="1612.5,444.3 1393.8,1016 2375,1016 1819.2,360.1 "/>
<path opacity="0.25" fill="#FFFFFF" d="M2352.3,731.7c0,0,5.5-3.2,8.4-4l13.1,57.2l-8.8,0.1L2352.3,731.7z"/>
<path opacity="0.25" fill="#FFFFFF" d="M2389.3,730c0,0,5.6-2.6,9.8-2.9l4.1,57.9h-9.3L2389.3,730z"/>
<g>
	
		<rect x="2425.5" y="579.7" transform="matrix(0.9915 0.1299 -0.1299 0.9915 116.7971 -312.052)" fill="#FCEE21" width="51" height="319.5"/>
	<line fill="#333333" x1="2495.3" y1="601.5" x2="2470.5" y2="598.3"/>
	<line fill="#333333" x1="2493" y1="619.4" x2="2480.1" y2="617.7"/>
	<line fill="#333333" x1="2491.1" y1="633.3" x2="2478.2" y2="631.6"/>
	<line fill="#333333" x1="2488.8" y1="651.1" x2="2464" y2="647.9"/>
	<line fill="#333333" x1="2488.8" y1="651.1" x2="2464" y2="647.9"/>
	<line fill="#333333" x1="2486.5" y1="669" x2="2473.6" y2="667.3"/>
	<line fill="#333333" x1="2484.6" y1="682.9" x2="2471.8" y2="681.2"/>
	<line fill="#333333" x1="2482.3" y1="700.7" x2="2457.5" y2="697.5"/>
	<line fill="#333333" x1="2482.3" y1="700.7" x2="2457.5" y2="697.5"/>
	<line fill="#333333" x1="2480" y1="718.6" x2="2467.1" y2="716.9"/>
	<line fill="#333333" x1="2478.2" y1="732.4" x2="2465.3" y2="730.7"/>
	<line fill="#333333" x1="2474.8" y1="750.1" x2="2450" y2="746.9"/>
	<line fill="#333333" x1="2475.8" y1="750.3" x2="2451" y2="747"/>
	<line fill="#333333" x1="2473.5" y1="768.1" x2="2460.6" y2="766.4"/>
	<line fill="#333333" x1="2471.7" y1="782" x2="2458.8" y2="780.3"/>
	<line fill="#333333" x1="2469.3" y1="799.9" x2="2444.5" y2="796.6"/>
	<line fill="#333333" x1="2468.3" y1="799.7" x2="2443.5" y2="796.5"/>
	<line fill="#333333" x1="2466" y1="817.6" x2="2453.1" y2="815.9"/>
	<line fill="#333333" x1="2464.2" y1="831.5" x2="2451.3" y2="829.8"/>
	<line fill="#333333" x1="2461.8" y1="849.3" x2="2437" y2="846.1"/>
	<line fill="#333333" x1="2460.5" y1="867.3" x2="2447.6" y2="865.6"/>
	<line fill="#333333" x1="2458.7" y1="881.2" x2="2445.8" y2="879.5"/>
</g>
<polygon opacity="0.25" fill="#FFFFFF" points="2419,785 2445,785 2473.5,581.3 2446.5,577.8 "/>
<g>
	<path fill="#0000FF" d="M2424.8,735.3l-1.4-10c0,0,6.3-3.5,10.7-1.5l1.4,10L2424.8,735.3z"/>
	<path fill="#0000FF" d="M2437.5,737.7c0,0,17.3,9.3,4.5,31.6l0.3,2.4c0,0,22-20.3-4.8-35.9L2437.5,737.7z"/>
	
		<rect x="2429.1" y="733.3" transform="matrix(0.9901 -0.1405 0.1405 0.9901 -86.7249 350.3105)" fill="#7373F9" width="17" height="112.1"/>
</g>
<polyline fill="#A2D394" points="2457,912 2379,912 2346,785 2490,785 2457,912 2379,912 "/>
<polygon opacity="0.25" fill="#FFFFFF" points="2346,785 2379,912 2437.6,911.8 2394,785 "/>
<path opacity="0.25" fill="#FFFFFF" d="M2428,785h9l-9-61.5c0,0-2.4,0.5-4.6,1.7l1.3,9.3l-3.4,0.4L2428,785z"/>
<polygon opacity="0.25" fill="#FFFFFF" points="2588,580.2 2745.8,911.4 2588,912 "/>
<rect x="2199.5" y="18.1" fill="#C69C6D" width="393.1" height="482.2"/>
<rect x="2212.9" y="32.8" fill="#FFFFFF" stroke="#F2F2F2" stroke-miterlimit="10" width="366.2" height="452.8"/>
<g>
	<path fill="#CCCCCC" d="M2417.8,358.8h-43.6c-6.6,0-12-5.4-12-12v-22.2c0-6.6,5.4-12,12-12h43.6c6.6,0,12,5.4,12,12v22.2
		C2429.8,353.4,2424.4,358.8,2417.8,358.8z"/>
	<g>
		<path fill="#F7CF2B" d="M2363,314h66.8c0,0-1.9-9.2,5.7-22.8s20.5-30.9,25.1-49.1s6.6-35.1-3-54.3c-9.6-19.2-25.1-30.5-41.7-34.4
			c-16.5-4-26.7-3.7-41.3,0.3"/>
		<path fill="#F7CF2B" d="M2430,314h-67.7c0,0,1.9-9.2-5.7-22.8c-7.6-13.6-20.5-30.9-25.1-49.1s-6.6-35.1,3-54.3
			s25.1-30.5,41.7-34.4c16.5-4,27.2-3.7,41.7,0.3"/>
	</g>
	<rect x="2362.2" y="313.8" fill="#666666" width="67.6" height="8.2"/>
	<rect x="2386.4" y="358.8" fill="#4D4D4D" width="19.8" height="9.2"/>
</g>
<path fill="#FFFFFF" d="M2366.8,168.1c0,0-41.9,12.6-25.2,69.5C2341.6,237.5,2332.4,200,2366.8,168.1z"/>
<line fill="#F7CF2B" stroke="#F7931E" stroke-width="7" stroke-miterlimit="10" x1="2493" y1="232.5" x2="2551" y2="232.5"/>
<line fill="#F7CF2B" stroke="#F7931E" stroke-width="7" stroke-miterlimit="10" x1="2395.5" y1="114" x2="2395.5" y2="56"/>
<line fill="#F7CF2B" stroke="#F7931E" stroke-width="7" stroke-miterlimit="10" x1="2475.5" y1="146" x2="2516.5" y2="105"/>
<line fill="#F7CF2B" stroke="#F7931E" stroke-width="7" stroke-miterlimit="10" x1="2311.5" y1="146" x2="2270.5" y2="105"/>
<line fill="#F7CF2B" stroke="#F7931E" stroke-width="7" stroke-miterlimit="10" x1="2241" y1="232.5" x2="2299" y2="232.5"/>
<polygon opacity="0.25" fill="#FFFFFF" points="2199.2,120.1 2538.5,500 2199,500 "/>
<g>
	<circle fill="#CCCCCC" cx="1370" cy="150.4" r="125.4"/>
	<circle fill="#FFFFFF" cx="1370" cy="150.4" r="103.8"/>
	<circle fill="#1A1A1A" cx="1370.9" cy="149.9" r="10.2"/>
	<polygon fill="#1A1A1A" points="1362.1,145 1370,53.4 1379.8,145 	"/>
	<polygon fill="#1A1A1A" points="1363.5,144.7 1327.9,188.4 1372.4,160.1 	"/>
</g>
</svg>
